<?xml version="1.0" encoding="utf-8"?>
<!-- Generator: Adobe Illustrator 19.0.1, SVG Export Plug-In . SVG Version: 6.00 Build 0)  -->
<svg version="1.1" id="Layer_1" xmlns="http://www.w3.org/2000/svg" xmlns:xlink="http://www.w3.org/1999/xlink" x="0px" y="0px"
	 viewBox="0 0 209 72" style="enable-background:new 0 0 209 72;" xml:space="preserve">
<style type="text/css">
	.st0{fill:#00A1DD;}
	.st1{fill-rule:evenodd;clip-rule:evenodd;fill:#00A1DD;}
</style>
<g>
	<g>
		<path class="st0" d="M5.4,37.9v27.7h6.4V48.4c2.7,2,5.9,3.1,9.5,3.1c8.9,0,16.1-7.3,16.1-16.3s-7.2-16.3-16.1-16.3
			c-8,0-15.3,6-15.9,15L5.4,37.9z M21.3,45.9c-4.6,0-8.4-3.4-9.5-8c-0.2-0.9-0.3-1.8-0.3-2.7c0-0.9,0.1-1.8,0.3-2.7
			c1.1-4.6,4.9-8,9.5-8c5.4,0,10.7,4.8,10.7,10.7S26.7,45.9,21.3,45.9z"/>
	</g>
	<g>
		<rect x="42.8" y="11.8" class="st0" width="6.3" height="39.7"/>
	</g>
	<g>
		<path class="st0" d="M85.5,35.8c0-9-7.2-16.4-16.2-16.4c-8.9,0-16.2,7.3-16.2,16.4c0,9,7.2,16.4,16.2,16.4c3.7,0,7.1-1.3,9.9-3.4
			v3h6.3V35.8L85.5,35.8C85.5,35.8,85.5,35.8,85.5,35.8z M69.3,46.4c-5.3,0-9.6-4.8-9.6-10.6s4.3-10.6,9.6-10.6
			c5.3,0,9.6,4.8,9.6,10.6S74.6,46.4,69.3,46.4z"/>
	</g>
	<g>
		<path class="st0" d="M109.3,44.3c0,0-3,3-7.1,2c-4.1-1-4.3-5-4.3-5V25.5h9.2v-5.8h-9.2v-8h-6.7v29.3c0,0,0.4,11,11.9,11
			c0,0,5.6,0,8-2.7L109.3,44.3z"/>
	</g>
	<g>
		<path class="st0" d="M121.2,31v20.3h-6.4V31c0,0,0.3-11.9,12.4-11.6c0,0,5-0.1,9.4,4.2l-3.7,5c0,0-2.3-3.8-6.5-3.8
			C123,24.9,121.2,28.9,121.2,31z"/>
	</g>
	<g>
		<path class="st0" d="M188.1,19.4c-12.6,0-13.8,11.6-13.8,12.8c0,1.2,0,19,0,19h6V32.9c0,0,0.2-7.7,7.5-8c6.9-0.2,8.2,6.7,8.2,7.7
			c0,0.9,0,18.7,0,18.7h6c0,0,0.1-18.2,0-19C201.9,31.5,201.4,19.4,188.1,19.4z"/>
	</g>
	<g>
		<g>
			<path class="st1" d="M154.3,19.1c2.6,0,5.1,0.6,7.3,1.7c0.3,0.2,0.7,0.3,1,0.5l-1.5,1.4l-2.3-2.4l-3.9,3.5l-2.3-2.5l-7.2,6.5
				l4.6,5.1l-1.8,1.6l4.6,5.1l-1.8,1.6l6.5,7.2l3.9-3.6l3.3,3.8c-0.7,0.5-1.4,1-2.2,1.5c-2.4,1.4-5.2,2.2-8.2,2.2
				c-9.1,0-16.6-7.4-16.6-16.6C137.7,26.5,145.1,19.1,154.3,19.1L154.3,19.1z"/>
		</g>
		<g>
			<polygon class="st1" points="151.2,34.6 155.2,31.1 158.7,35 154.8,38.6 151.2,34.6 			"/>
		</g>
		<g>
			<polygon class="st1" points="154,41.4 158,37.9 161.5,41.8 157.6,45.4 154,41.4 			"/>
		</g>
		<g>
			<polygon class="st1" points="148.4,27.9 152.4,24.3 155.9,28.3 152,31.8 148.4,27.9 			"/>
		</g>
		<g>
			<polygon class="st1" points="155.6,26 158.6,23.3 161.3,26.3 158.3,28.9 155.6,26 			"/>
		</g>
		<g>
			<polygon class="st1" points="160.9,38.2 163.8,35.5 166.5,38.5 163.6,41.1 160.9,38.2 			"/>
		</g>
		<g>
			<polygon class="st1" points="163.5,44.1 166.4,41.5 169.1,44.4 166.2,47.1 163.5,44.1 			"/>
		</g>
		<g>
			<polygon class="st1" points="164.7,30.5 166.7,28.7 168.4,30.6 166.5,32.4 164.7,30.5 			"/>
		</g>
		<g>
			<polygon class="st1" points="162.2,24.6 164.1,22.8 165.9,24.8 163.9,26.6 162.2,24.6 			"/>
		</g>
		<g>
			<polygon class="st1" points="167.2,36.3 169.2,34.5 170.9,36.5 169,38.3 167.2,36.3 			"/>
		</g>
		<g>
			<polygon class="st1" points="158.4,31.9 161.3,29.3 164,32.2 161,34.9 158.4,31.9 			"/>
		</g>
	</g>
</g>
</svg>
