<?xml version="1.0" standalone="no"?>
<!DOCTYPE svg PUBLIC "-//W3C//DTD SVG 20010904//EN"
 "http://www.w3.org/TR/2001/REC-SVG-20010904/DTD/svg10.dtd">
<svg version="1.0" xmlns="http://www.w3.org/2000/svg"
 width="600.000000pt" height="93.000000pt" viewBox="0 0 600.000000 93.000000"
 preserveAspectRatio="xMidYMid meet">
<metadata>
Created by potrace 1.15, written by Peter Selinger 2001-2017
</metadata>
<g transform="translate(0.000000,93.000000) scale(0.100000,-0.100000)"
fill="#121724" stroke="none">
<path d="M299 901 c-13 -22 -29 -31 -68 -41 -28 -6 -55 -19 -60 -29 -6 -9 -42
-24 -88 -36 l-78 -20 -3 -40 c-4 -42 8 -95 35 -157 14 -32 21 -38 47 -38 17 0
49 11 71 25 89 55 116 27 126 -128 4 -62 8 -132 8 -157 2 -68 9 -75 65 -56 42
14 50 14 92 0 25 -8 48 -13 52 -10 3 3 7 32 10 64 3 31 11 67 20 80 13 20 22
22 104 22 109 0 123 -11 157 -117 13 -39 31 -79 41 -88 17 -16 19 -15 30 5 17
31 70 60 111 60 34 0 37 3 43 33 3 17 1 48 -4 67 -6 19 -17 68 -25 107 -8 40
-23 93 -34 118 -11 25 -16 45 -12 45 17 0 55 98 59 150 5 64 -9 83 -55 78 -22
-2 -33 -12 -48 -44 -49 -103 -82 -118 -248 -111 -125 5 -130 6 -158 33 -16 16
-51 70 -77 121 -40 80 -51 93 -72 93 -17 0 -30 -9 -41 -29z m150 -204 c41 -45
53 -48 200 -54 124 -5 141 -3 177 15 49 25 78 56 98 105 22 53 40 48 34 -10
-3 -33 -15 -63 -38 -95 l-33 -47 21 -49 c12 -27 30 -89 41 -138 10 -49 22
-101 26 -116 6 -25 4 -28 -17 -28 -14 0 -45 -11 -71 -23 l-46 -24 -17 51 c-39
120 -61 136 -188 136 -47 0 -96 -4 -109 -9 -29 -11 -57 -66 -57 -113 l0 -33
-69 0 -68 0 -7 74 c-3 41 -6 101 -6 133 0 137 -81 198 -177 134 -23 -16 -49
-26 -57 -23 -16 7 -46 95 -46 137 0 24 5 27 60 38 37 7 72 21 90 36 16 13 47
27 69 31 22 4 49 17 62 31 l23 25 39 -78 c22 -43 51 -91 66 -106z"/>
<path d="M2602 718 c-7 -7 -12 -48 -13 -107 -1 -53 -4 -109 -8 -126 -8 -40
-35 -44 -49 -8 -42 115 -57 144 -90 176 -61 60 -91 67 -270 67 -157 0 -159 0
-183 -26 -18 -20 -25 -40 -29 -87 -4 -53 -8 -62 -25 -65 -17 -2 -26 8 -44 52
-12 31 -38 69 -57 86 l-35 30 -208 0 -209 0 -16 -25 c-14 -21 -16 -63 -16
-294 0 -306 -4 -291 83 -291 70 0 77 14 77 163 0 70 4 127 9 127 4 0 37 -35
72 -78 35 -42 92 -107 128 -144 l64 -68 67 0 c48 0 71 4 80 15 15 18 -2 42
-108 156 l-72 77 38 6 c45 7 84 44 107 104 19 46 23 48 47 30 14 -11 17 -39
20 -165 3 -145 4 -153 27 -177 37 -39 89 -49 231 -43 137 5 180 18 232 74 32
33 64 102 74 158 8 48 20 66 40 58 11 -4 14 -29 14 -115 0 -108 0 -110 29
-139 l29 -29 199 0 c141 0 202 3 211 12 13 13 16 85 6 112 -5 14 -28 16 -144
16 -76 0 -145 3 -154 6 -14 5 -16 35 -16 224 0 251 0 250 -79 250 -26 0 -52
-5 -59 -12z m98 -245 c0 -120 4 -223 8 -229 18 -27 56 -34 181 -34 l131 0 0
-30 0 -30 -182 0 c-228 0 -218 -7 -218 139 0 58 -4 112 -9 119 -4 7 -2 36 6
65 7 28 13 89 13 134 l0 83 35 0 35 0 0 -217z m-899 180 c17 -15 42 -51 55
-80 23 -52 23 -53 5 -96 -23 -52 -63 -87 -102 -87 -27 0 -49 -22 -49 -49 0 -6
38 -52 85 -103 47 -50 85 -95 85 -100 0 -10 -51 -11 -75 -2 -23 9 -236 265
-229 276 3 4 40 8 83 8 100 0 122 15 128 86 4 40 1 54 -17 77 -21 27 -22 27
-150 27 -127 0 -130 0 -146 -25 -13 -20 -15 -39 -10 -88 3 -34 6 -125 5 -202
0 -154 -6 -173 -53 -161 l-26 6 0 254 c0 218 2 257 16 270 13 13 45 16 189 16
l173 0 33 -27z m563 7 c51 -25 90 -76 111 -144 9 -28 21 -59 26 -69 7 -12 6
-29 0 -50 -6 -18 -18 -58 -26 -89 -17 -63 -58 -118 -109 -146 -25 -14 -59 -17
-173 -17 -194 0 -187 -7 -191 198 -2 83 -7 156 -12 162 -5 6 -5 17 0 25 6 8
10 37 10 64 0 82 8 86 178 86 126 0 151 -3 186 -20z m-644 -93 c18 -9 26 -22
28 -45 5 -52 -10 -62 -92 -62 -39 0 -86 -4 -104 -9 -27 -8 -34 -7 -42 9 -14
26 -13 93 2 108 16 16 175 16 208 -1z"/>
<path d="M2103 599 c-10 -9 -13 -62 -13 -191 0 -208 -6 -198 120 -198 89 0
139 16 163 53 59 92 48 259 -23 322 -18 17 -39 21 -129 23 -76 3 -110 0 -118
-9z m220 -49 c70 -55 61 -250 -12 -290 -11 -5 -56 -10 -100 -10 l-81 0 0 160
0 160 84 0 c68 0 88 -4 109 -20z"/>
<path d="M3913 724 c-10 -4 -13 -76 -13 -309 0 -329 1 -334 55 -321 l25 6 -2
313 -3 312 -25 2 c-14 1 -31 -1 -37 -3z"/>
<path d="M3024 705 c-4 -8 -3 -26 0 -40 6 -24 8 -25 101 -25 l95 0 0 -269 c0
-259 1 -270 20 -276 10 -3 28 -1 40 5 19 10 20 19 20 275 l0 264 93 3 92 3 3
38 3 37 -231 0 c-196 0 -231 -2 -236 -15z"/>
<path d="M3545 553 c-37 -10 -73 -43 -95 -88 -19 -39 -21 -59 -18 -144 3 -93
5 -101 34 -137 56 -69 74 -78 179 -82 128 -6 147 0 143 41 l-3 32 -92 -3 c-83
-4 -95 -2 -124 19 -28 20 -59 71 -59 99 0 6 41 10 110 10 115 0 161 12 174 45
3 9 6 43 6 74 0 67 -22 105 -76 127 -32 13 -137 17 -179 7z m162 -85 c29 -28
32 -83 4 -98 -25 -13 -188 -13 -196 0 -11 17 15 79 42 100 37 29 118 28 150
-2z"/>
<path d="M4178 542 c-68 -31 -82 -62 -89 -187 -5 -95 -4 -115 12 -145 45 -86
94 -109 225 -110 104 0 131 11 120 53 l-6 26 -85 -6 c-95 -7 -135 4 -164 46
-10 14 -20 38 -23 54 l-5 27 111 0 c88 0 117 4 136 17 37 25 40 32 40 98 0 68
-12 93 -64 124 -43 27 -153 29 -208 3z m184 -77 c19 -18 24 -32 20 -52 -7 -44
-27 -53 -124 -53 l-88 0 0 34 c0 22 9 45 26 65 23 28 31 31 84 31 48 0 61 -4
82 -25z"/>
<path d="M4630 542 c-78 -39 -125 -162 -102 -269 14 -69 50 -122 101 -151 30
-17 55 -22 114 -22 104 0 129 11 125 52 -3 28 -6 33 -28 31 -14 -2 -52 -6 -85
-9 -55 -6 -63 -4 -92 20 -44 37 -56 74 -51 157 4 68 6 73 42 106 38 35 40 36
100 29 118 -13 111 -14 114 22 3 27 -1 34 -23 42 -44 17 -175 12 -215 -8z"/>
<path d="M5751 544 c-34 -12 -50 -13 -68 -5 -31 14 -171 14 -211 0 -17 -6 -41
-26 -52 -44 -19 -31 -20 -46 -18 -212 l3 -178 38 -3 37 -3 0 176 0 175 33 20
c32 20 92 26 113 12 5 -4 18 -18 27 -32 14 -20 17 -51 17 -187 l0 -163 35 0
35 0 0 174 0 174 37 22 c27 16 47 20 72 16 63 -10 65 -18 71 -209 l5 -172 38
-3 37 -3 0 169 c0 209 -3 226 -48 260 -43 33 -134 40 -201 16z"/>
<path d="M4990 534 c-15 -9 -39 -40 -54 -68 -27 -50 -28 -58 -24 -147 8 -165
52 -209 210 -209 83 0 89 2 122 30 53 47 69 101 64 218 -3 87 -7 102 -28 129
-40 49 -79 63 -178 63 -62 0 -94 -5 -112 -16z m196 -60 c31 -21 46 -61 51
-139 5 -66 3 -72 -26 -113 -56 -75 -131 -82 -188 -16 -31 35 -33 42 -33 116 0
81 12 118 46 150 34 30 106 31 150 2z"/>
<path d="M325 175 c-20 -19 -25 -34 -25 -74 0 -43 4 -53 31 -75 21 -18 42 -26
69 -26 27 0 48 8 69 26 27 22 31 32 31 75 0 70 -29 99 -100 99 -41 0 -56 -5
-75 -25z"/>
<path d="M885 174 c-37 -40 -35 -106 4 -145 24 -24 38 -29 76 -29 66 0 95 31
95 100 0 71 -29 100 -100 100 -42 0 -55 -5 -75 -26z"/>
</g>
</svg>
