<?xml version="1.0" standalone="no"?>
<!DOCTYPE svg PUBLIC "-//W3C//DTD SVG 20010904//EN"
 "http://www.w3.org/TR/2001/REC-SVG-20010904/DTD/svg10.dtd">
<svg version="1.0" xmlns="http://www.w3.org/2000/svg"
 width="2356.000000pt" height="509.000000pt" viewBox="0 0 2356.000000 509.000000"
 preserveAspectRatio="xMidYMid meet">

<g transform="translate(0.000000,509.000000) scale(0.100000,-0.100000)"
fill="#121724" stroke="none">
<path fill="#2e4190" d="M1735 4326 c-13 -13 -27 -37 -30 -53 -20 -99 -76 -135 -285 -187
-180 -44 -213 -61 -229 -123 -12 -46 -56 -67 -197 -92 -270 -48 -380 -86 -408
-140 -31 -59 -12 -206 59 -453 51 -177 85 -258 130 -304 39 -41 45 -44 94 -44
63 0 124 24 246 98 189 115 242 130 323 91 80 -39 133 -142 158 -305 8 -50 20
-277 29 -505 15 -418 19 -464 56 -550 l21 -48 52 35 c87 57 157 78 271 78 120
1 185 -16 272 -73 l61 -40 16 40 c15 38 22 91 45 338 11 120 37 183 91 219 64
43 100 47 390 47 l275 0 57 -28 c98 -48 137 -115 231 -398 71 -214 110 -299
154 -342 l29 -27 32 48 c66 102 169 176 289 207 66 17 178 19 242 4 25 -5 48
-6 53 -1 5 5 11 37 14 73 17 180 -156 905 -278 1171 l-40 87 51 58 c64 72 153
248 181 358 31 120 41 238 25 299 -25 96 -127 160 -216 136 -67 -18 -104 -62
-153 -183 -95 -235 -182 -323 -369 -375 -54 -15 -116 -17 -477 -17 -454 0
-484 4 -593 62 -116 64 -222 226 -427 654 -81 170 -115 209 -181 209 -29 0
-47 -7 -64 -24z"/>
<path d="M10220 3600 c-97 -18 -154 -54 -181 -114 -17 -38 -19 -72 -19 -419 0
-423 0 -426 -67 -454 -45 -18 -93 -10 -121 20 -13 14 -29 60 -45 132 -56 249
-138 406 -292 560 -111 111 -197 166 -327 209 -121 41 -232 48 -713 44 -497
-4 -505 -5 -591 -81 -79 -69 -87 -96 -94 -297 -6 -189 -15 -223 -65 -256 -32
-21 -102 -21 -141 -1 -34 18 -37 25 -83 172 -55 180 -158 315 -297 387 -141
74 -126 73 -814 73 -710 0 -683 3 -775 -89 -96 -96 -89 -21 -93 -1066 -2 -503
0 -934 3 -957 7 -47 40 -86 95 -111 27 -12 68 -16 175 -17 130 0 144 2 189 25
96 48 91 15 94 556 l3 474 24 16 c34 22 71 6 105 -43 47 -70 791 -938 827
-965 75 -57 134 -72 293 -72 162 -1 235 14 289 60 33 27 41 67 21 105 -6 10
-154 179 -330 374 -176 196 -320 362 -320 370 0 9 15 16 38 20 165 24 246 59
331 144 66 67 105 134 146 255 34 102 57 125 127 133 57 7 107 -16 133 -60 19
-30 20 -59 25 -562 l5 -530 33 -67 c51 -105 139 -171 260 -197 69 -14 892 -15
982 0 164 26 305 97 427 212 155 147 260 355 308 608 34 182 36 188 62 209 32
25 99 26 129 2 43 -34 44 -47 44 -400 0 -280 3 -348 16 -392 35 -117 116 -199
234 -234 47 -14 138 -16 698 -16 635 0 645 0 682 21 75 42 117 148 107 270
-10 118 -57 192 -134 210 -21 5 -257 9 -524 9 -455 0 -487 1 -502 18 -15 16
-17 94 -19 797 -3 751 -4 781 -22 812 -24 39 -64 70 -116 88 -51 18 -163 26
-220 15z m-3329 -553 c65 -35 94 -97 94 -202 -1 -96 -27 -160 -83 -203 l-35
-27 -291 -6 c-270 -5 -295 -7 -344 -27 -67 -28 -125 -29 -152 -2 -19 19 -20
33 -20 245 0 203 2 225 18 234 11 7 156 11 393 11 374 0 376 0 420 -23z m2114
-5 c171 -79 266 -312 252 -616 -10 -207 -66 -365 -167 -467 -86 -86 -99 -89
-443 -89 -256 0 -293 2 -309 17 -17 15 -18 46 -18 577 0 498 2 564 16 584 l16
23 301 -3 c291 -3 304 -4 352 -26z"/>
<path d="M14910 3599 c-13 -6 -33 -17 -42 -26 -17 -15 -18 -76 -18 -1099 0
-595 3 -1090 6 -1099 10 -25 60 -46 117 -47 74 -2 114 10 137 39 20 25 20 39
20 1102 0 1196 5 1110 -68 1131 -46 12 -119 12 -152 -1z"/>
<path d="M11675 3564 c-25 -25 -35 -59 -35 -118 0 -64 16 -113 40 -126 11 -6
148 -10 334 -10 l316 0 0 -949 c0 -605 4 -959 10 -976 13 -35 65 -55 144 -55
70 0 104 9 129 35 16 15 17 97 17 981 l0 964 323 0 324 0 24 26 c21 23 24 35
24 104 0 64 -4 84 -21 107 l-21 28 -796 3 c-730 2 -797 1 -812 -14z"/>
<path d="M17740 2999 c-168 -21 -336 -107 -430 -221 -117 -140 -169 -305 -177
-563 -8 -256 29 -431 123 -582 99 -159 250 -256 458 -292 197 -35 605 16 651
81 20 30 20 120 -2 165 -23 49 -50 59 -109 40 -140 -46 -370 -69 -478 -48
-177 33 -290 146 -343 341 -26 94 -25 407 1 500 25 90 81 193 128 236 138 124
333 139 685 53 48 -11 55 -11 74 7 34 31 51 74 53 132 1 47 -2 57 -26 77 -68
58 -408 100 -608 74z"/>
<path d="M13628 2981 c-198 -43 -346 -154 -426 -321 -74 -154 -97 -295 -89
-538 6 -196 26 -293 88 -421 70 -143 199 -254 366 -312 100 -35 192 -49 358
-56 250 -9 458 20 489 70 36 58 26 164 -19 193 -23 15 -32 15 -112 -1 -130
-25 -407 -31 -510 -12 -226 43 -347 183 -376 435 l-5 42 326 0 c425 1 523 13
626 81 100 67 140 160 140 324 -1 264 -136 442 -389 511 -95 26 -357 29 -467
5z m316 -211 c180 -26 276 -127 276 -290 0 -94 -20 -132 -88 -163 -45 -21 -62
-22 -390 -25 l-343 -3 6 63 c24 241 119 369 305 407 112 23 142 24 234 11z"/>
<path d="M16058 2990 c-196 -33 -343 -125 -439 -273 -37 -57 -78 -165 -99
-262 -18 -81 -28 -282 -19 -399 10 -145 32 -232 86 -346 87 -181 247 -300 473
-352 83 -19 123 -22 325 -22 275 0 362 14 408 64 23 25 27 39 27 86 0 65 -21
111 -54 120 -13 3 -56 -2 -97 -11 -113 -25 -423 -31 -519 -11 -200 43 -316
163 -355 370 -8 43 -15 84 -15 91 0 11 74 14 378 17 316 4 387 8 437 22 129
37 199 89 244 185 24 52 26 66 26 191 0 156 -15 215 -76 310 -70 109 -188 180
-352 214 -81 17 -294 20 -379 6z m359 -241 c121 -38 193 -139 193 -271 0 -82
-26 -129 -87 -159 -47 -24 -54 -24 -392 -27 l-344 -3 7 76 c13 142 66 263 138
318 120 92 315 118 485 66z"/>
<path d="M19084 2986 c-227 -43 -385 -156 -472 -336 -72 -149 -87 -230 -87
-485 0 -196 3 -230 23 -310 66 -260 219 -424 462 -492 53 -14 101 -18 255 -18
179 1 195 2 270 28 186 62 323 187 393 359 62 156 91 380 73 576 -22 241 -77
380 -200 503 -85 85 -159 126 -288 160 -102 27 -327 34 -429 15z m356 -240
c149 -55 238 -180 270 -378 17 -105 8 -402 -15 -482 -24 -87 -67 -165 -117
-213 -157 -152 -497 -148 -643 9 -95 101 -135 246 -135 487 0 342 100 524 321
586 71 20 255 14 319 -9z"/>
<path d="M20846 2980 c-192 -24 -343 -85 -418 -169 -85 -94 -82 -68 -86 -791
l-3 -636 26 -24 c44 -41 188 -41 233 1 l22 20 0 605 c0 686 -4 653 78 701 73
43 163 63 285 63 150 0 210 -29 259 -124 42 -82 47 -160 48 -717 l0 -526 26
-24 c21 -20 38 -24 98 -27 85 -5 143 16 152 53 5 22 -2 1155 -8 1210 -3 29 1
32 92 78 123 61 199 80 309 75 111 -4 173 -33 214 -100 59 -95 60 -102 66
-718 l6 -565 35 -18 c46 -24 163 -20 204 6 l27 18 -3 607 -3 607 -27 81 c-71
208 -207 302 -466 320 -167 12 -365 -27 -513 -102 l-66 -33 -24 26 c-31 32
-103 69 -176 89 -69 18 -290 26 -387 14z"/>
<path d="M1915 1690 c-164 -54 -263 -203 -253 -379 6 -100 42 -174 120 -246
132 -123 330 -133 472 -23 143 109 187 299 108 460 -81 164 -274 246 -447 188z
m200 -260 c14 -13 30 -41 36 -62 20 -75 -44 -158 -121 -158 -37 0 -90 31 -107
63 -18 35 -19 96 -3 127 33 62 144 78 195 30z"/>
<path d="M3959 1686 c-72 -29 -110 -56 -154 -110 -80 -97 -104 -222 -66 -342
85 -277 429 -355 625 -143 70 75 98 147 98 249 0 45 -6 93 -16 120 -40 110
-137 204 -241 235 -74 23 -179 19 -246 -9z m207 -242 c12 -8 30 -31 39 -51 25
-51 14 -100 -30 -140 -29 -27 -43 -33 -81 -33 -82 0 -132 59 -121 141 12 91
114 134 193 83z"/>
</g>
</svg>
